<svg xmlns="http://www.w3.org/2000/svg" width="128" height="128" fill="none" viewBox="0 0 128 128">
  <g clip-path="url(#a)" filter="url(#b)">
    <path fill="#CCC" d="M120.734 63.484c1.489 0 2.713.532 3.67 1.596 1.064 1.064 1.596 2.34 1.596 3.83 0 1.383-.479 2.606-1.436 3.67-.851.958-1.969 1.49-3.352 1.596-2.34.213-3.777.798-4.309 1.756-.531.957-.797 2.66-.797 5.107v22.821c.106 2.34.159 4.787.159 7.341.107 2.553.16 5 .16 7.341 0 1.702-.585 3.138-1.756 4.309-1.17 1.17-2.553 1.755-4.149 1.755-2.234 0-3.937-.798-5.107-2.394l-4.309-6.064c-1.17-1.489-2.66-2.234-4.468-2.234-1.17 0-2.234.319-3.192.957-3.404 2.235-6.756 4.043-10.054 5.426-3.192 1.383-6.33 2.447-9.416 3.192a55.526 55.526 0 0 1-9.096 1.436c-2.98.213-5.852.32-8.618.32-8.511 0-16.118-1.49-22.821-4.469-6.703-3.085-12.395-7.235-17.076-12.448-4.681-5.319-8.245-11.543-10.692-18.672C3.224 82.528 2 74.921 2 66.836 2 57.578 3.49 49.12 6.468 41.46c3.086-7.66 7.395-14.204 12.927-19.63 5.532-5.532 12.182-9.788 19.949-12.767 7.766-2.979 16.384-4.468 25.853-4.468 2.128 0 4.575.106 7.341.319 2.873.106 5.798.372 8.777.798 2.98.32 5.799.745 8.459 1.277 2.766.532 5.106 1.17 7.021 1.915-.106-1.596.266-2.98 1.117-4.15C98.764 3.585 100.04 3 101.743 3c1.17 0 2.181.372 3.032 1.117.957.745 1.542 1.702 1.755 2.873l10.533 46.6c.213 1.17.053 2.34-.479 3.51-.425 1.064-1.17 1.862-2.234 2.394-.745.426-1.596.639-2.553.639-2.128 0-3.724-1.011-4.788-3.033-3.085-6.064-6.118-11.596-9.097-16.597-2.979-5.107-6.117-9.469-9.415-13.086-3.192-3.617-6.597-6.437-10.214-8.458-3.617-2.022-7.607-3.032-11.969-3.032-1.064 0-2.447.106-4.15.319-1.595.106-3.35.638-5.266 1.596-1.808.957-3.617 2.447-5.426 4.468-1.808 2.022-3.457 4.947-4.947 8.777-1.49 3.724-2.713 8.512-3.67 14.363-.958 5.746-1.437 12.874-1.437 21.385v7.5c.107 2.98.32 6.225.639 9.736.425 3.51 1.01 7.022 1.755 10.533.745 3.404 1.756 6.543 3.032 9.415 1.383 2.873 3.086 5.214 5.107 7.022 2.128 1.702 4.681 2.554 7.66 2.554 3.83 0 7.501-1.543 11.012-4.628 3.51-3.192 6.383-7.076 8.618-11.65V82.475c0-3.085-.905-5.16-2.713-6.224-1.809-1.17-4.096-1.862-6.863-2.075-1.383-.106-2.553-.638-3.51-1.596-.958-.957-1.437-2.18-1.437-3.67 0-1.49.479-2.766 1.436-3.83 1.064-1.064 2.341-1.596 3.83-1.596 4.469.106 8.831.266 13.087.479 4.255.106 8.618.16 13.086.16 4.043 0 8.139-.054 12.288-.16a493.53 493.53 0 0 1 12.289-.48Z"/>
  </g>
  <defs>
    <clipPath id="a">
      <path fill="#fff" d="M0 0h128v128H0z"/>
    </clipPath>
    <filter id="b" width="132" height="130.245" x="-1" y="0" color-interpolation-filters="sRGB" filterUnits="userSpaceOnUse">
      <feFlood flood-opacity="0" result="BackgroundImageFix"/>
      <feColorMatrix in="SourceAlpha" result="hardAlpha" values="0 0 0 0 0 0 0 0 0 0 0 0 0 0 0 0 0 0 127 0"/>
      <feOffset dy="1"/>
      <feComposite in2="hardAlpha" operator="out"/>
      <feColorMatrix values="0 0 0 0 0.2 0 0 0 0 0.2 0 0 0 0 0.2 0 0 0 1 0"/>
      <feBlend in2="BackgroundImageFix" result="effect1_dropShadow_274_1514"/>
      <feColorMatrix in="SourceAlpha" result="hardAlpha" values="0 0 0 0 0 0 0 0 0 0 0 0 0 0 0 0 0 0 127 0"/>
      <feOffset dx="1" dy="1"/>
      <feGaussianBlur stdDeviation="2"/>
      <feComposite in2="hardAlpha" operator="out"/>
      <feColorMatrix values="0 0 0 0 0.2 0 0 0 0 0.2 0 0 0 0 0.2 0 0 0 1 0"/>
      <feBlend in2="effect1_dropShadow_274_1514" result="effect2_dropShadow_274_1514"/>
      <feBlend in="SourceGraphic" in2="effect2_dropShadow_274_1514" result="shape"/>
    </filter>
  </defs>
</svg>
