<svg xmlns="http://www.w3.org/2000/svg" width="72" height="72" fill="none" viewBox="0 0 72 72">
  <path fill="#333" fill-rule="evenodd" d="M1 36C1 16.672 16.672 1 36 1s35 15.672 35 35-15.672 35-35 35S1 55.328 1 36Zm5.938 0c0 16.047 13.015 29.063 29.062 29.063a28.932 28.932 0 0 0 18.344-6.524L44.804 49h8.391l5.344 5.344c4.078-5 6.523-11.39 6.523-18.344C65.063 19.953 52.047 6.937 36 6.937a28.932 28.932 0 0 0-18.344 6.524L27.196 23h-8.391l-5.344-5.344A28.932 28.932 0 0 0 6.937 36Z" clip-rule="evenodd"/>
  <path fill="#333" d="M38.54 47.712V24h6.496c2.432 0 4.512.427 6.24 1.28 1.75.853 3.093 2.144 4.032 3.872.96 1.728 1.44 3.925 1.44 6.592s-.47 4.885-1.408 6.656c-.939 1.77-2.261 3.104-3.968 4-1.707.875-3.733 1.312-6.08 1.312H38.54Zm4.736-3.84h1.44c1.493 0 2.773-.267 3.84-.8 1.088-.555 1.92-1.43 2.496-2.624.576-1.216.864-2.784.864-4.704s-.288-3.456-.864-4.608c-.576-1.173-1.408-2.016-2.496-2.528-1.067-.533-2.347-.8-3.84-.8h-1.44v16.064ZM15 47.712 22.584 24h5.6l7.584 23.712h-4.992l-3.36-12.352a122.143 122.143 0 0 1-1.056-3.84 86.262 86.262 0 0 0-1.024-3.904h-.128a104.99 104.99 0 0 1-.992 3.904 239.204 239.204 0 0 1-1.024 3.84L19.8 47.712H15Zm4.704-6.08v-3.68h11.264v3.68H19.704Z"/>
</svg>
