<svg xmlns="http://www.w3.org/2000/svg" width="64" height="64" fill="none" viewBox="0 0 64 64">
  <g clip-path="url(#a)">
    <path fill="#000" fill-rule="evenodd" d="M-.333 11.461A2.462 2.462 0 0 1 2.128 9h59.077a2.461 2.461 0 1 1 0 4.923H2.128a2.462 2.462 0 0 1-2.461-2.462Zm0 13.129a2.461 2.461 0 0 1 2.461-2.462h59.077a2.461 2.461 0 1 1 0 4.923H2.128A2.462 2.462 0 0 1-.333 24.59Zm59.77 9.547a2.462 2.462 0 0 1 .426 3.453L47.063 54a2.461 2.461 0 0 1-3.824.07l-6.892-8.206a2.462 2.462 0 1 1 3.768-3.164l4.936 5.875 10.93-14.014a2.462 2.462 0 0 1 3.455-.427m-59.77 3.584a2.461 2.461 0 0 1 2.462-2.462h22.975a2.462 2.462 0 0 1 0 4.923H2.128a2.462 2.462 0 0 1-2.461-2.461Zm0 13.128a2.461 2.461 0 0 1 2.462-2.461h22.975a2.462 2.462 0 0 1 0 4.923H2.128a2.461 2.461 0 0 1-2.461-2.462Z" clip-rule="evenodd"/>
  </g>
  <defs>
    <clipPath id="a">
      <path fill="#fff" d="M0 0h64v64H0z"/>
    </clipPath>
  </defs>
</svg>
