<svg xmlns="http://www.w3.org/2000/svg" width="80" height="80" fill="none" viewBox="0 0 80 80">
  <path fill="#000" d="m71.7 48.633-4.167-4.4c.53-3.207.463-6.484-.2-9.666l4.067-4.4a2.533 2.533 0 0 0 .467-2.634 34.331 34.331 0 0 0-7.334-11.166 2.466 2.466 0 0 0-2.4-.634L56 17.3a28.332 28.332 0 0 0-6.1-3.333l-1.5-5.734A2.434 2.434 0 0 0 46.433 6.4a33.334 33.334 0 0 0-6.3-.567c-2.644.013-5.276.36-7.833 1.034a2.433 2.433 0 0 0-1.767 1.766l-1.6 5.9a27.333 27.333 0 0 0-5.066 2.934l-6.067-1.5a2.433 2.433 0 0 0-2.4.7 33.333 33.333 0 0 0-7.433 12.066A2.533 2.533 0 0 0 8.5 31.3l4.2 4.367a29.335 29.335 0 0 0-.333 4.233c0 1 0 2 .166 3l-4.366 4.867a2.5 2.5 0 0 0-.534 2.433A33.334 33.334 0 0 0 14.3 62.167a2.5 2.5 0 0 0 2.533.8l5.734-1.467a26.668 26.668 0 0 0 6.666 4.1l1.667 5.967a2.567 2.567 0 0 0 1.867 1.766 33.88 33.88 0 0 0 7.333.834 34.71 34.71 0 0 0 5.867-.567 2.5 2.5 0 0 0 1.966-1.767L49.5 66.2a27 27 0 0 0 7.933-4.467l5.867 1.334a2.467 2.467 0 0 0 2.433-.8A33.667 33.667 0 0 0 72.4 51.133a2.534 2.534 0 0 0-.7-2.5Zm-31.3 4.234a12.702 12.702 0 0 1-12.938-12.663A12.7 12.7 0 0 1 40.33 27.47a12.7 12.7 0 0 1 .067 25.4"/>
</svg>
